<svg xmlns="http://www.w3.org/2000/svg" viewBox="0 0 787 787"><defs><style>.cls-1,.cls-2{fill:#fff;}.cls-1{stroke:#000;stroke-miterlimit:10;stroke-width:10px;}.cls-2{font-size:28px;font-family:MyriadPro-Bold, Myriad Pro;font-weight:700;}.cls-3{letter-spacing:-0.01em;}.cls-4{letter-spacing:0em;}.cls-5{letter-spacing:0em;}.cls-6{letter-spacing:0.03em;}.cls-7{letter-spacing:0em;}</style></defs><title>Asset 1</title><g id="Layer_2" data-name="Layer 2"><g id="Layer_1-2" data-name="Layer 1"><circle class="cls-1" cx="393.5" cy="393.5" r="388.5"/><path d="M96.38,486c1.4-2,2.8-3.89,5.32-4.58,1.07-.3,1.41-1.34,1.76-2.26q6.32-16.68,12.64-33.36a2.51,2.51,0,0,0-.88-3.41,6.68,6.68,0,0,1-2.65-7.65,6.89,6.89,0,0,1,6.29-5.16,6.65,6.65,0,0,1,6.92,4.19,2.56,2.56,0,0,0,2.69,1.68q18.45-.06,36.92,0a2.45,2.45,0,0,0,2.68-1.67,5,5,0,0,1,2.71-3.1c1.95-.79,2.39-2.16,2.31-4.1-.61-14.94-.33-29.88-.37-44.83a3.48,3.48,0,0,0-1.92-3.36,6.93,6.93,0,0,1-3.1-8.13,7.39,7.39,0,0,1,6.94-5.05,7.28,7.28,0,0,1,6.76,5.61,6.86,6.86,0,0,1-3.76,7.85,3.09,3.09,0,0,0-1.89,3.31q.23,22.79.37,45.57a2.71,2.71,0,0,0,1.75,2.92c1.51.6,1.88-.7,2.5-1.44q17.07-20.43,34.1-40.88c7.56-9.07,15.09-18.16,22.69-27.19,1-1.2,1.5-2.27.84-3.79a4.88,4.88,0,0,1,.15-4.33c.94-1.76.38-3.05-.66-4.5q-14.91-20.85-29.74-41.77a4.13,4.13,0,0,0-3.47-1.92c-5.66-.31-8.51-4.55-6.77-10a3.19,3.19,0,0,0-.58-3.19q-9-12.29-18-24.62a2.64,2.64,0,0,0-3.13-1.24,6.11,6.11,0,0,1-6.13-1.76,2.51,2.51,0,0,0-3.49-.5c-7.27,3.91-14.56,7.8-21.89,11.6-1.41.73-1.44,1.68-1.41,3A7.08,7.08,0,0,1,129,280.15c-.95-3,.06-5.37,2.28-7.31s5-2.53,7.55-.91c2,1.28,3.56.85,5.44-.16q10.35-5.59,20.83-10.94c1.66-.84,2.07-2.1,2.43-3.69a6.89,6.89,0,0,1,7.16-5.57,7.21,7.21,0,0,1,6.73,5.89,5,5,0,0,1-.39,3.62c-.94,1.62-.55,2.82.51,4.25q8.79,11.84,17.39,23.8c1,1.4,2,2.08,3.7,1.43a3.92,3.92,0,0,1,3.38.18c2.05,1.21,3.68.49,5.48-.59q12.61-7.62,25.33-15.07a3.24,3.24,0,0,0,1.77-3.36,7.26,7.26,0,0,1,6.86-7.14c3.56-.18,7,2.92,7.38,6.69a7.27,7.27,0,0,1-5.88,7.48,6.83,6.83,0,0,1-5.6-1.39,2.05,2.05,0,0,0-2.67-.11q-13.4,8-26.84,15.94a1.85,1.85,0,0,0-1,2.42,6.51,6.51,0,0,1-1,5.89,2.49,2.49,0,0,0,.08,3.34q14.93,20.84,29.79,41.73c1,1.4,1.95,2.35,3.86,1.69a4.77,4.77,0,0,1,3.18.13c1.95.76,2.2-.16,2.2-1.83,0-10.49,0-21,0-31.46,0-3.42.27-3.55,3.25-1.83,13.23,7.64,26.44,15.3,39.72,22.86a4.91,4.91,0,0,1,2.87,4.86q-.11,52.15,0,104.31c0,2-.51,3.35-2.36,4.4-13.56,7.74-27.06,15.57-40.59,23.35-2.55,1.47-2.86,1.28-2.86-1.7,0-8.67,0-17.34,0-26,0-1.64.06-2.66-2.2-1.86a6.43,6.43,0,0,1-7.86-3,3.57,3.57,0,0,0-3.53-2.08q-25.76.08-51.53,0a3.15,3.15,0,0,0-3.07,1.54c-3.39,5.31-9.23,5.29-12.55,0a2.77,2.77,0,0,0-2.59-1.5q-18.71,0-37.41,0a2.46,2.46,0,0,0-2.54,1.55,5.63,5.63,0,0,1-3.56,3.26c-1.94.53-2.74,1.81-3.39,3.53q-6.06,16.24-12.25,32.44c-.49,1.29-.63,2.27.71,3.21,2.75,1.93,4,4.57,3,7.95a6.77,6.77,0,0,1-5.8,5.06c-3.57.38-6-1.31-7.64-4.35-.12-.21-.26-.42-.39-.63Zm152.53-89.8V386.06c0-7.44,0-14.87,0-22.3,0-.73.33-2.21-.7-2a16.89,16.89,0,0,1-7.32-.18c-.65-.15-1.07.66-1.49,1.17Q210.81,397,182.28,431.2c-.72.86-1.67,1.69-1.07,3.05s1.88,1.14,3,1.14c16.92,0,33.85,0,50.78,0a3.57,3.57,0,0,0,3.71-2.15,6.37,6.37,0,0,1,7.91-3.41c2.44.9,2.33-.24,2.33-1.94C248.89,417.35,248.91,406.78,248.91,396.21Z"/><path d="M691,300.09c-1.36,1.79-2.75,3.54-5.07,4.17-1,.27-1.34,1.13-1.66,2-4.26,11.28-8.49,22.57-12.8,33.82-.6,1.6-.34,2.46,1.08,3.47,2.58,1.82,3.2,4.59,2.43,7.52a6.59,6.59,0,0,1-5.59,5,6.46,6.46,0,0,1-7.14-3.3c-1.06-2.22-2.52-2.58-4.7-2.56-11.47.1-22.95.09-34.43.06-1.69,0-3,.16-3.72,2.06a5.39,5.39,0,0,1-3.09,3.08c-1.75.67-2,1.87-2,3.5q0,22.29,0,44.59c0,1.72.35,2.89,2.07,3.76a6.72,6.72,0,0,1,3.64,7.87,7.3,7.3,0,0,1-6.61,5.45,7.11,7.11,0,0,1-6.92-4.67c-1.08-3.13-.2-6.67,2.73-8.25,2.32-1.25,2.48-2.88,2.47-5,0-14.45,0-28.9,0-43.35a7.36,7.36,0,0,0-.2-2.45,2.26,2.26,0,0,0-4-.42q-10.08,12.06-20.12,24.16-18,21.58-36,43.16c-1.38,1.65-2.91,3.1-1.67,5.64a4.57,4.57,0,0,1-.4,4.09c-.81,1.4-.37,2.41.47,3.59q15.06,21,30.07,42.14c.82,1.16,1.55,2.08,3.33,2a7.05,7.05,0,0,1,7.05,9.4,4.19,4.19,0,0,0,.81,4.27q8.78,11.84,17.38,23.8a3.08,3.08,0,0,0,3.49,1.54,6.37,6.37,0,0,1,6.29,2.09c.88,1,1.74,1,2.83.38,7.42-4,14.85-7.95,22.31-11.84,1.5-.78,1.49-2,1.52-3.32a7.11,7.11,0,0,1,6.3-7.06,7.32,7.32,0,0,1,7.52,5.57,7.1,7.1,0,0,1-4.35,8.23,6.22,6.22,0,0,1-5.95-.47c-1.64-1.09-3-.85-4.56,0q-10.47,5.63-21,11.11a4.51,4.51,0,0,0-2.73,3.71A7,7,0,1,1,606.5,525a5,5,0,0,0-.94-5.19q-8.49-11.44-16.84-23c-1-1.42-2.06-2.24-3.91-1.6a3.76,3.76,0,0,1-3.15-.18c-2.24-1.41-3.95-.41-5.86.75q-12.18,7.4-24.47,14.59c-1.64,1-2.54,2-2.51,4.07a6.82,6.82,0,0,1-5.44,6.51,7.18,7.18,0,0,1-7.9-3.79,7.4,7.4,0,0,1,1.62-8.43,6.28,6.28,0,0,1,8.17-.86c1.74,1.2,3,1,4.66,0q12.5-7.59,25.1-15c1.4-.83,2.06-1.64,1.61-3.36a5.54,5.54,0,0,1,.88-5c1.25-1.54.92-2.65-.13-4.11q-14.17-19.71-28.24-39.5a29.35,29.35,0,0,1-1.7-2.43,2.18,2.18,0,0,0-2.91-1.1,5.43,5.43,0,0,1-4.56-.37c-2-1.14-2.13-.17-2.13,1.5,0,10.32,0,20.65,0,31,0,.74,0,1.49,0,2.23-.11,2.31-.51,2.61-2.46,1.49-14-8.07-28-16.19-42.06-24.24-1.61-.93-1.63-2.28-1.63-3.81q0-28.49,0-57c0-15.52.06-31-.07-46.57,0-2.72.74-4.28,3.2-5.66,13.37-7.55,26.63-15.3,39.93-23,2.68-1.54,3.06-1.35,3.07,1.71,0,8.67,0,17.34,0,26,0,2,.25,2.61,2.45,1.78,3.59-1.37,6.69-.14,8.68,3.2a3.46,3.46,0,0,0,3.4,1.87q25.64-.06,51.28,0a3.35,3.35,0,0,0,3.34-1.91,6.89,6.89,0,0,1,12.27,0,3.34,3.34,0,0,0,3.34,1.91q18.09-.08,36.17,0c1.45,0,2.53-.3,3.17-1.77a5.91,5.91,0,0,1,4-3.41,3.59,3.59,0,0,0,2.63-2.61q6.06-16.25,12.26-32.44c.7-1.84,1-3.07-1.08-4.52a6.83,6.83,0,0,1-.68-10.45c2.91-3,7.35-2.85,10.32.35.56.6,1,1.27,1.56,1.91ZM537.86,389.7v15.11c0,5.69,0,11.39,0,17.08,0,2,.13,3.31,2.65,2a5,5,0,0,1,4.34-.08c1.72.79,2.65.12,3.74-1.19,10.37-12.51,20.82-25,31.22-37.45q12.91-15.49,25.78-31c.71-.85,1.32-1.69.73-2.89s-1.6-1-2.57-1q-25.74,0-51.5,0a3,3,0,0,0-3.08,1.85c-1.77,3.47-5.43,5.1-8.71,3.62-2.72-1.22-2.6.12-2.6,2Q537.89,373.74,537.86,389.7Z"/><path d="M489,366v24c0,18.35,0,36.71.06,55.07a4.72,4.72,0,0,1-2.64,4.75c-14.41,8.21-28.7,16.65-43.18,24.76-3.9,2.18-7.58,4.71-11.52,6.81s-8,4.61-12,6.91l-11.81,6.8c-4,2.3-8.06,4.53-12,7a4.19,4.19,0,0,1-4.95,0c-13.54-7.92-27.22-15.59-40.73-23.57-8.29-4.91-16.76-9.48-25-14.39s-16.69-9.74-25.11-14.47a4.31,4.31,0,0,1-2.49-4.32c.06-15.27-.22-30.55.14-45.82.16-6.4-.39-12.75-.17-19.14s.05-13,.05-19.56.1-13.05-.05-19.57a5,5,0,0,1,2.89-5.09c13.93-7.91,27.77-16,41.64-24l7.06-4.05q21.22-12.25,42.45-24.54a3.21,3.21,0,0,1,3.65.07q21.21,12.3,42.47,24.52l7.7,4.45c13.76,7.87,27.46,15.84,41.23,23.7a4.14,4.14,0,0,1,2.4,4.12C488.9,349,489,357.48,489,366Z"/><path d="M394.65,531.92c0-7.68.07-15.36,0-23a4.51,4.51,0,0,1,2.57-4.54q45.63-26.23,91.16-52.62a3.42,3.42,0,0,1,3.88,0q20.55,11.94,41.18,23.77c2.77,1.59,2.77,1.77.06,3.33-8.36,4.84-16.7,9.7-25.1,14.48-1.63.94-2.22,1.38-.15,2.64,3.55,2.15,4.44,6,2.34,9.69a3.47,3.47,0,0,0,.07,3.89q12.85,22.17,25.65,44.39a3.43,3.43,0,0,0,3.18,1.86c6.12.27,9.07,5.57,6.16,11a3,3,0,0,0,0,3.22q9.32,15.93,18.55,31.9a2.48,2.48,0,0,0,2.77,1.48,5.51,5.51,0,0,1,4.55,1.57,4.77,4.77,0,0,0,4.55,1.12c11.65-2,23.29-3.88,35-5.71,1.63-.25,1.86-1,2-2.42a7,7,0,0,1,8.31-6.46A7.11,7.11,0,1,1,618,605.35a2.16,2.16,0,0,1-.92-.35c-2.77-2.88-6-1.71-9.24-1.18-10.34,1.71-20.68,3.42-31,5-1.73.27-2.59.87-2.72,2.78A7,7,0,0,1,561.75,615a6.45,6.45,0,0,1-.64-7.84c1.39-1.92,1-3.29-.05-5.06q-8.92-15.15-17.71-30.39c-.78-1.36-1.63-2.09-3.35-1.79a4.91,4.91,0,0,1-4-1.05c-1.35-1.14-2.44-.79-3.78,0Q512.67,580.3,493,591.61a3.52,3.52,0,0,0-2.13,3.47,6.77,6.77,0,0,1-5.27,6.9,7.24,7.24,0,0,1-7.84-3.39,7,7,0,0,1,1.15-8.45c2.44-2.48,5.59-3.08,8.54-1.16,1.82,1.18,3.09.49,4.53-.35q19.19-11.11,38.35-22.24c1-.61,2.51-.93,2.23-2.82s-1.87-1.88-3.16-2.1q-24.75-4.32-49.53-8.55-18.66-3.23-37.32-6.48c-1.43-.26-2.52-.18-3.5,1a6.3,6.3,0,0,1-4.48,2.38,3,3,0,0,0-2.73,2.1q-10.8,23.81-21.66,47.56a3.63,3.63,0,0,0,.23,3.85,6.92,6.92,0,0,1-5.07,10.48,3.1,3.1,0,0,0-2.69,2.13q-6,13.83-12.2,27.63c-.64,1.43-.73,2.56.41,3.82a6.3,6.3,0,0,1,1.44,6.23c-.43,1.48.13,2.25,1.36,3,6.53,4,13.06,8.07,19.48,12.29,1.94,1.27,3.37,1.56,5.52.31a6.65,6.65,0,0,1,9,2.55,7.07,7.07,0,0,1-2,9.65,7.18,7.18,0,0,1-9.59-1.44,6.4,6.4,0,0,1-1.51-5.08,2.34,2.34,0,0,0-1.33-2.61q-10.81-6.75-21.6-13.57a3.67,3.67,0,0,0-3.49-.34c-4.43,1.54-8.42-.46-9.63-4.7a7.27,7.27,0,0,1,5.79-8.88,4.43,4.43,0,0,0,3.51-3q5.87-13.51,11.92-26.95c.54-1.2.66-2.13-.43-3.07a4.73,4.73,0,0,1-1.83-3.15c-.16-2.58-1.7-3.76-3.8-4.9-8.56-4.64-17-9.46-25.51-14.25a2.59,2.59,0,0,0-3.14-.05,6.87,6.87,0,0,1-8.84-.88,6.74,6.74,0,0,1-1.18-8.6,7.07,7.07,0,0,1,8.12-3.21,7.22,7.22,0,0,1,5.06,7.62,2.25,2.25,0,0,0,1.24,2.6q13.22,7.31,26.39,14.72c1.58.9,2.79,1,4.1-.44a5.17,5.17,0,0,1,4.56-1.47,2.94,2.94,0,0,0,3.29-2q10.59-23.35,21.27-46.65c.7-1.52.71-2.73-.58-4a5.47,5.47,0,0,1-1.66-4.27c.15-2.47-.89-2.13-2.43-1.23q-11.67,6.79-23.37,13.52c-1.29.74-2.57,1.5-3.87,2.22-2.1,1.15-2.52.93-2.54-1.56,0-6.69,0-13.38,0-20.07Zm40.72,3.58c2.79,1.35,4.95,2.78,5.33,5.44.28,2,1.39,2.54,3.08,2.83q43.92,7.56,87.82,15.16c1,.18,1.93.28,2.66-.71s.19-1.87-.3-2.72Q521,533.09,508.08,510.68c-.66-1.15-1.35-1.87-2.92-1.62a6.47,6.47,0,0,1-5.76-2.27c-1.84-1.91-2.25-4.25-1.88-7.18Z"/><path d="M507.29,292.08l16.63,9.65c3.22,1.87,6.44,3.71,9.66,5.57,2.5,1.44,2.51,1.66,0,3.08q-15.12,8.75-30.25,17.45c-3.65,2.1-7.34,4.15-10.93,6.34a3.35,3.35,0,0,1-3.87.08q-45.88-26.55-91.83-53a3.87,3.87,0,0,1-2.16-3.78c0-15.69,0-31.38,0-47.07,0-2.89.39-3.07,3-1.58q13.83,8,27.67,16a3.38,3.38,0,0,0,2.18.84,8.78,8.78,0,0,1,1.78-6,6.65,6.65,0,0,1,5.68-2.51,3.18,3.18,0,0,0,3.15-1.87q13-22.63,26.15-45.25a2.14,2.14,0,0,0-.18-2.69,7,7,0,0,1,6.17-11.07,2.72,2.72,0,0,0,2.89-1.7q9.09-15.93,18.26-31.79a2.87,2.87,0,0,0,0-3.43,6.32,6.32,0,0,1-.91-5.22,3.78,3.78,0,0,0-1-3.61q-11.1-13.49-22.12-27c-1.09-1.33-2-2-3.94-1.12a6.93,6.93,0,0,1-8.47-2.08,7.51,7.51,0,0,1-.08-8.6,7.21,7.21,0,0,1,8-2.47,6.78,6.78,0,0,1,4.69,7.31,6,6,0,0,0,1.65,4.89q10.74,13,21.33,26.06c1.27,1.57,2.3,2.59,4.66,1.53a6.16,6.16,0,0,1,7.43,1.83,6.78,6.78,0,0,1,1.3,7.61c-1.22,2.7-3.34,4.35-6.44,4.13a3.77,3.77,0,0,0-4,2.17q-8.85,15.62-17.87,31.15c-.77,1.32-.88,2.32.15,3.53a4.82,4.82,0,0,1,1.17,3.46c-.2,2.22,1,3.21,2.73,4.19q19.32,11.1,38.58,22.34a3.39,3.39,0,0,0,3.87,0,6.85,6.85,0,0,1,8.62,1.15,7.09,7.09,0,0,1-6.8,11.83,6.81,6.81,0,0,1-5.34-6.86,3.67,3.67,0,0,0-2-3.61q-19.56-11.22-39-22.52c-1.13-.66-2.15-1.5-3.56-.3s-.77,2.37-.32,3.58q11.77,32.09,23.59,64.16c2.26,6.13,4.53,12.24,6.71,18.39.54,1.53,1.26,2.58,3,2.88a6.32,6.32,0,0,1,4,2.69,3.38,3.38,0,0,0,3.46,1.34q26-2.51,52-5a3.64,3.64,0,0,0,3-1.88c3-4.78,8-5.28,11.75-1.15a3.34,3.34,0,0,0,3.21,1.2c10-1.1,20-2.13,30-3.16,1.49-.16,2.61-.6,3.11-2.27a6.31,6.31,0,0,1,4.9-4.46c1.31-.31,1.68-1,1.73-2.28.29-8,.59-16,1-24a3.63,3.63,0,0,0-2.13-4,7,7,0,0,1-3.28-8.08,6.74,6.74,0,0,1,6.34-5,6.87,6.87,0,0,1,7.23,4.84,6.71,6.71,0,0,1-2.91,8,4.42,4.42,0,0,0-2.5,3.9q-.45,12.85-.95,25.72c0,1,.61,1.46,1.29,2a6.77,6.77,0,0,1,2.77,7.63,6.35,6.35,0,0,1-5,5c-3.18.67-5.93-.13-7.78-3a2.23,2.23,0,0,0-2.49-1c-10.17,1.12-20.35,2.18-30.52,3.24-1.33.14-2.38.49-2.67,2.05a5.41,5.41,0,0,1-2.47,3.59,3.87,3.87,0,0,0-1.84,4c.7,10,.33,20,.46,30a3.5,3.5,0,0,0,1.85,3.42c3.36,2,4.41,5,3.31,8.46a7,7,0,0,1-13.51-.48c-.87-3.28.54-6.45,3.91-8.25a3,3,0,0,0,1.8-3.14c-.57-10-.4-20-.45-30a2.41,2.41,0,0,0-1.94-2.71,6.49,6.49,0,0,1-4.33-3.79c-.61-1.37-1.51-1.69-3-1.54q-25.38,2.48-50.75,4.84c-1.89.18-3.2.63-3.73,2.79C511.3,289.63,509.51,290.8,507.29,292.08Zm-70.52-40.74c.66.42,1.13.74,1.62,1l27.46,15.84q15,8.67,30,17.34c1.5.87,2.35,1.09,2.35-1.14a5.59,5.59,0,0,1,2.22-4.53c1.51-1.15,1.4-2.27.82-3.85q-10.45-28.22-20.8-56.48-5-13.48-9.93-27c-.43-1.17-1-2.08-2.36-2.2-1.07-.1-1.37.77-1.77,1.47q-13.07,22.62-26.14,45.25a2.5,2.5,0,0,0,.1,3.1c2.56,3.83,1.52,7.92-2.45,10.37C437.59,250.77,437.27,251,436.77,251.34Z"/><path d="M391.81,532.11c0,7.84,0,15.69,0,23.53,0,2.78-.35,3-2.8,1.59-7.74-4.43-15.48-8.85-23.16-13.39-1.83-1.08-2.69-1.36-3.21,1.21a6.65,6.65,0,0,1-6.9,5.58,3.32,3.32,0,0,0-3.48,2q-9.44,16.44-18.93,32.84c-2.18,3.79-4.33,7.6-6.58,11.35a3.3,3.3,0,0,0-.08,4,6.88,6.88,0,0,1-6,10.56,3.68,3.68,0,0,0-3.55,2.07q-8.94,15.72-18,31.38a3.14,3.14,0,0,0,0,3.85,5.33,5.33,0,0,1,.84,4.51c-.51,1.87.22,3.09,1.33,4.44q11.28,13.65,22.41,27.42c1.14,1.42,2,.87,3.13.32a6.58,6.58,0,0,1,7.59,1.12,7.09,7.09,0,0,1-3.56,12.35,7,7,0,0,1-8-7.69,5.76,5.76,0,0,0-1.54-4.67q-11.08-13.47-22.11-27a2.47,2.47,0,0,0-3.39-.83,7.08,7.08,0,0,1-9.2-9.47c1.29-3.07,3.89-4.43,7.19-4.14a2.48,2.48,0,0,0,2.76-1.47q9.15-16,18.39-32a2.47,2.47,0,0,0-.18-3.14,6,6,0,0,1-1.31-4.65,2.24,2.24,0,0,0-1.33-2.58Q292.12,589.69,272.11,578c-1.7-1-2.75-.12-4.05.57a6.53,6.53,0,0,1-7.63-.77,6.82,6.82,0,0,1-2.39-7.35,6.59,6.59,0,0,1,5.45-5.13,6.92,6.92,0,0,1,8.32,6.64,4.24,4.24,0,0,0,2.5,4.06q19.44,11.16,38.8,22.45c1.23.71,2.33,1.06,3.62,0s.53-2.1.17-3.11q-15.22-41.5-30.48-83c-.55-1.49-1.21-2.57-3-2.75a4.58,4.58,0,0,1-3.52-2.11c-1.05-1.83-2.39-2-4.32-1.79q-25.73,2.61-51.48,5a3.67,3.67,0,0,0-3.12,2c-2.84,4.53-8.19,5-11.67,1a3.77,3.77,0,0,0-3.7-1.32q-14.88,1.7-29.76,3.31c-1.35.14-2.28.42-2.75,1.92a6.75,6.75,0,0,1-4.79,4.62,2.44,2.44,0,0,0-2,2.66q-.41,11.63-1,23.25c-.1,2,.23,3.46,2.31,4.59a6.54,6.54,0,0,1,3.1,7.86,7,7,0,0,1-13.59,0,6.82,6.82,0,0,1,3.23-8.07,4.25,4.25,0,0,0,2.33-4.18q.33-12,.91-24a3.92,3.92,0,0,0-1.81-3.49,6.66,6.66,0,0,1-2.29-7.35,6.87,6.87,0,0,1,5.77-5.14c2.74-.49,4.86.69,6.53,2.71a3.54,3.54,0,0,0,3.38,1.54q15.25-1.71,30.51-3.35c1.22-.14,2-.55,2.22-1.84a5,5,0,0,1,2.16-3.51c2-1.13,2.26-2.78,2.15-4.8-.53-9.81-.45-19.64-.46-29.46a3.33,3.33,0,0,0-2-3.31,7,7,0,0,1-3.25-8.3,7.11,7.11,0,0,1,13.64.51,6.91,6.91,0,0,1-3.84,8c-1.38.66-2.05,1.41-1.93,3,.75,9.81.28,19.64.43,29.47,0,1.84.25,3.1,2.38,3.58a5,5,0,0,1,3.53,2.92c1,2.29,2.72,2.28,4.71,2.08,5.09-.51,10.18-1,15.27-1.48,11.58-1.13,23.15-2.29,34.74-3.35,1.62-.15,2.57-.63,3-2.31a5.2,5.2,0,0,1,2.37-3.37c1.68-1,1.47-1.57-.08-2.45-5.69-3.2-11.33-6.48-17-9.74-3.58-2.06-7.16-4.1-10.72-6.2-2.34-1.38-2.36-1.7-.07-3,13.87-8,27.75-16,41.61-24a3.26,3.26,0,0,1,3.66.12q34.2,19.79,68.43,39.51c7.58,4.37,15.13,8.8,22.76,13.1a4.1,4.1,0,0,1,2.4,4.12C391.75,516.41,391.81,524.26,391.81,532.11ZM353,536.88a4.21,4.21,0,0,0-2-1.62q-14.69-8.49-29.38-17c-9-5.2-18-10.37-27-15.63-1.76-1-2.43-.92-2.42,1.27a4.47,4.47,0,0,1-1.83,3.67c-2.1,1.44-1.63,3-.91,4.9q6,16,11.83,32.06,9.23,25.11,18.46,50.21c.41,1.09.56,2.52,2.24,2.59,1.34,0,1.83-1,2.36-1.89q12.9-22.29,25.79-44.59a2.79,2.79,0,0,0-.16-3.38,6.75,6.75,0,0,1-.51-7.06A8.88,8.88,0,0,1,353,536.88Z"/><path d="M280.57,291.42c-.28-.9-.95-.93-1.41-1.22a7.06,7.06,0,0,1-2.51-9.72c.7-1.25,1-2.23.23-3.62q-13.06-22.5-26-45.05a2.81,2.81,0,0,0-2.95-1.61,7,7,0,0,1-6.43-10.71,3.2,3.2,0,0,0,.14-3.62q-9.22-15.69-18.32-31.47c-.77-1.34-1.53-2.13-3.28-1.91a4.69,4.69,0,0,1-4.11-1.37c-1.43-1.6-3-1.6-4.92-1.28q-17.09,2.85-34.2,5.6c-1.64.27-2.59.78-2.69,2.77a6.87,6.87,0,0,1-6.22,6.34A7.12,7.12,0,0,1,163,181.8a6.61,6.61,0,0,1,8.47,0,4.52,4.52,0,0,0,4.07,1q17.22-2.91,34.46-5.64c1.73-.28,2.8-.87,3.09-2.84a6.74,6.74,0,0,1,5.56-5.91,7,7,0,0,1,7.31,3.09,6.72,6.72,0,0,1-.2,8.11,2.66,2.66,0,0,0,0,3.36q9.21,15.69,18.31,31.46c.71,1.23,1.42,1.83,2.93,1.55a5.53,5.53,0,0,1,4.43,1.21c1.21,1,2.13.76,3.33.06q20-11.68,40-23.27c1.33-.76,1.44-1.67,1.42-3a7.27,7.27,0,0,1,7-7.23,7.34,7.34,0,0,1,7.17,6.3,7.23,7.23,0,0,1-5.71,7.85,6.57,6.57,0,0,1-5.39-1.2,2.57,2.57,0,0,0-3.16,0q-19.75,11.58-39.58,23.08c-1.09.64-2.18,1.2-1.95,2.79s1.63,1.61,2.81,1.81q43.31,7.52,86.61,15.05a4.25,4.25,0,0,0,4.45-1.31,4.84,4.84,0,0,1,3.44-1.81c2.09,0,3-1.17,3.79-2.89q10.57-23.35,21.27-46.65a4.2,4.2,0,0,0-.1-4.17c-2.44-4.51-.42-9.08,4.6-10.43a4.75,4.75,0,0,0,3.54-3q5.77-13.42,11.75-26.76c.68-1.53.79-2.64-.43-4a6.08,6.08,0,0,1-1.34-6.24c.5-1.44,0-2.07-1.17-2.77q-10.31-6.4-20.55-12.92a3.25,3.25,0,0,0-4-.16,6.64,6.64,0,0,1-8.78-1.15,6.72,6.72,0,0,1-.94-8.42,7.07,7.07,0,0,1,13.11,4.28,2.47,2.47,0,0,0,1.35,2.6q10.62,6.61,21.18,13.31a4.32,4.32,0,0,0,4.13.54,7.05,7.05,0,0,1,9.51,5.26c.87,4-1.91,7.74-6.41,8.33a2.84,2.84,0,0,0-2.54,1.93Q393.7,157,387.5,170.88c-.62,1.39-.6,2.46.62,3.5a5.22,5.22,0,0,1,1.74,3.48,4.84,4.84,0,0,0,2.93,3.93c8.69,4.76,17.32,9.61,25.95,14.47a3.19,3.19,0,0,0,3.62.11c3.43-2,6.46-1.41,8.94,1.3a6.79,6.79,0,0,1,.61,8.66A7.09,7.09,0,0,1,419,201.55a2.42,2.42,0,0,0-1.48-2.72q-13.43-7.47-26.78-15c-1.07-.6-1.85-.71-2.82.27a6.54,6.54,0,0,1-5.86,2,2,2,0,0,0-2.45,1.46Q368.85,211.38,358,235.13c-.59,1.3-.69,2.25.46,3.28a6,6,0,0,1,2,4.41c.05,2.17.83,2.06,2.37,1.16,8.2-4.79,16.44-9.51,24.66-14.25l1.07-.63c3-1.69,3.23-1.57,3.24,1.85,0,15.44,0,30.88.05,46.33a4.2,4.2,0,0,1-2.38,4.14Q343.81,307.67,298.27,334a3.83,3.83,0,0,1-4.34,0q-20.44-11.88-41-23.66c-2.3-1.32-2.31-1.64.05-3q11.88-6.9,23.8-13.75Zm71-41c-2.46-1.33-4.51-2.7-5-5.25-.4-2.12-1.64-2.73-3.55-3.05q-43.53-7.47-87.05-15c-1.06-.19-2.14-.44-3,.59-1,1.22,0,2.2.51,3.15q12.84,22.31,25.7,44.6a2.64,2.64,0,0,0,3,1.5,6.84,6.84,0,0,1,7.47,6.8c.05,2.12.57,2.14,2.22,1.18,9.26-5.4,18.57-10.73,27.86-16.09Z"/><text class="cls-2" transform="matrix(1, 0, 0, 1, 305.91, 403.57)">c<tspan class="cls-3" x="12.63" y="0">r</tspan><tspan class="cls-4" x="23.04" y="0">e</tspan><tspan class="cls-3" x="37.83" y="0">a</tspan><tspan class="cls-5" x="52.39" y="0">t</tspan><tspan class="cls-6" x="62.52" y="0">e</tspan><tspan x="78.15" y="0">-m</tspan><tspan class="cls-7" x="111.24" y="0">f</tspan><tspan x="120.71" y="0">-app</tspan></text></g></g></svg>